<?xml version="1.0" encoding="utf-8"?>
<!-- Generator: Adobe Illustrator 25.2.0, SVG Export Plug-In . SVG Version: 6.00 Build 0)  -->
<svg version="1.1" id="Layer_1" xmlns="http://www.w3.org/2000/svg" xmlns:xlink="http://www.w3.org/1999/xlink" x="0px" y="0px"
	 viewBox="0 0 500 500" style="enable-background:new 0 0 500 500;" xml:space="preserve">
<style type="text/css">
	.st0{fill:#9476EC;}
	.st1{fill:#04011A;}
</style>
<g>
	<path class="st0" d="M-1341.45-894.75v61.45h-35.48v-169.54h71.2c18.64,0,33.33,4.86,44.06,14.57c10.73,9.71,16.1,22.99,16.1,39.83
		c0,10.97-2.72,20.78-8.17,29.43c-5.45,8.66-12.98,14.9-22.62,18.74l35.72,66.97h-40.18l-31.61-61.45H-1341.45z M-1341.45-974.18
		v52.17h31.14c8.93,0,15.88-2.29,20.86-6.87c4.97-4.58,7.46-10.95,7.46-19.09c0-8.07-2.58-14.45-7.75-19.15
		c-5.17-4.7-12.14-7.05-20.91-7.05H-1341.45z"/>
	<path class="st0" d="M-1174.38-894.75v61.45h-35.48v-169.54h71.2c18.64,0,33.33,4.86,44.06,14.57c10.73,9.71,16.1,22.99,16.1,39.83
		c0,10.97-2.72,20.78-8.17,29.43c-5.44,8.66-12.98,14.9-22.62,18.74l35.72,66.97h-40.18l-31.61-61.45H-1174.38z M-1174.38-974.18
		v52.17h31.14c8.93,0,15.88-2.29,20.85-6.87s7.46-10.95,7.46-19.09c0-8.07-2.58-14.45-7.75-19.15c-5.17-4.7-12.14-7.05-20.91-7.05
		H-1174.38z"/>
	<path class="st0" d="M-933.87-833.3l-12.81-40.42h-59.57l-13.04,40.42h-35.6l58.86-169.54h41.71l58.86,169.54H-933.87z
		 M-977.34-967.6l-21.27,66.5h44.41l-21.03-66.5H-977.34z"/>
	<path class="st0" d="M-803.45-833.3h-35.48v-62.39l-59.1-107.15h38.42l37.36,70.97h2.12l37.25-70.97h38.42l-58.98,107.15V-833.3z"
		/>
</g>
<g>
	<g>
		<path class="st0" d="M-1294.59-1534.65v-170.66l23.42-19.92h0.27v190.57H-1294.59z M-1270.91-1702.34v-22.88h53.3l19.65,22.61
			v0.27H-1270.91z M-1270.91-1616.21v-22.88h49.26v22.88H-1270.91z M-1221.65-1534.65v-167.69h23.69v167.69H-1221.65z"/>
		<path class="st0" d="M-1172.12-1534.65v-190.57h23.69v190.57H-1172.12z M-1148.44-1702.34v-22.88h52.49l19.65,22.61v0.27H-1148.44
			z M-1148.44-1616.21v-22.88h48.45v22.88H-1148.44z M-1096.76-1534.65l-23.15-81.56l18.84-15.61l32.57,96.9v0.27H-1096.76z
			 M-1099.98-1616.21v-86.14h23.69v67.02l-23.42,19.11H-1099.98z"/>
		<path class="st0" d="M-1049.12-1534.65v-190.57h23.69v190.57H-1049.12z M-1025.43-1702.34v-22.88h52.49l19.65,22.61v0.27H-1025.43
			z M-1025.43-1616.21v-22.88h48.45v22.88H-1025.43z M-973.75-1534.65l-23.15-81.56l18.84-15.61l32.57,96.9v0.27H-973.75z
			 M-976.98-1616.21v-86.14h23.69v67.02l-23.42,19.11H-976.98z"/>
		<path class="st0" d="M-926.11-1534.65v-170.66l23.42-19.92h0.27v190.57H-926.11z M-902.42-1702.34v-22.88h53.3l19.65,22.61v0.27
			H-902.42z M-902.42-1616.21v-22.88h49.26v22.88H-902.42z M-853.16-1534.65v-167.69h23.69v167.69H-853.16z"/>
		<path class="st0" d="M-772.15-1624.02l-39.84-100.94v-0.27h25.03l30.15,86.4l-15.07,14.8H-772.15z M-772.15-1534.65v-89.37h24.23
			v89.37H-772.15z M-771.88-1624.02l37.15-101.21h25.3v0.27l-38.49,100.94H-771.88z"/>
	</g>
</g>
<rect x="-1699.74" y="-546.62" class="st0" width="538.18" height="538.18"/>
<rect x="-1633.62" y="115.16" class="st0" width="947.74" height="276.74"/>
<rect x="-1160.73" y="-546.62" class="st1" width="538.18" height="538.18"/>
<rect x="-1633.62" y="391.9" class="st1" width="947.74" height="276.74"/>
<g>
	<g>
		<path class="st0" d="M-1545.94-959.49l23.66,49.91l-16.18,33.89h33.25l20.77,42.39h-74.25h-47.48L-1545.94-959.49z
			 M-1499.72-948.7l56.83,115.4h47.77l-83.49-169.54h-46.63l-0.07,0.16L-1499.72-948.7z"/>
	</g>
</g>
<g>
	<g>
		<path class="st1" d="M-1257.79,267.29v36.26h-20.94V203.5h42.02c11,0,19.67,2.87,26,8.6c6.33,5.73,9.5,13.57,9.5,23.51
			c0,6.47-1.61,12.26-4.82,17.37c-3.21,5.11-7.66,8.8-13.35,11.06l21.08,39.52h-23.71l-18.65-36.26H-1257.79z M-1257.79,220.42
			v30.79h18.37c5.27,0,9.37-1.35,12.31-4.06c2.93-2.7,4.4-6.46,4.4-11.27c0-4.76-1.53-8.53-4.58-11.3
			c-3.05-2.77-7.17-4.16-12.34-4.16H-1257.79z"/>
		<path class="st1" d="M-1159.19,267.29v36.26h-20.94V203.5h42.02c11,0,19.67,2.87,26,8.6c6.33,5.73,9.5,13.57,9.5,23.51
			c0,6.47-1.61,12.26-4.82,17.37c-3.21,5.11-7.66,8.8-13.35,11.06l21.08,39.52h-23.71l-18.65-36.26H-1159.19z M-1159.19,220.42
			v30.79h18.37c5.27,0,9.37-1.35,12.31-4.06c2.94-2.7,4.4-6.46,4.4-11.27c0-4.76-1.53-8.53-4.58-11.3
			c-3.05-2.77-7.17-4.16-12.34-4.16H-1159.19z"/>
		<path class="st1" d="M-1017.25,303.56l-7.56-23.85h-35.16l-7.7,23.85h-21.01l34.74-100.06h24.62l34.74,100.06H-1017.25z
			 M-1042.91,224.3l-12.55,39.25h26.21l-12.41-39.25H-1042.91z"/>
		<path class="st1" d="M-940.29,303.56h-20.94v-36.82l-34.88-63.24h22.67l22.05,41.88h1.25l21.98-41.88h22.67l-34.81,63.24V303.56z"
			/>
	</g>
	<g>
		<g>
			<path class="st1" d="M-1378.46,229.09l13.96,29.45l-9.55,20h19.62l12.26,25.01h-43.82h-28.02L-1378.46,229.09z M-1351.19,235.46
				l33.54,68.1h28.19l-49.27-100.06h-27.52l-0.04,0.09L-1351.19,235.46z"/>
		</g>
	</g>
</g>
<g>
	<g>
		<path class="st0" d="M-1257.79,544.03v36.26h-20.94V480.24h42.02c11,0,19.67,2.87,26,8.6c6.33,5.73,9.5,13.57,9.5,23.51
			c0,6.47-1.61,12.26-4.82,17.37c-3.21,5.11-7.66,8.8-13.35,11.06l21.08,39.52h-23.71l-18.65-36.26H-1257.79z M-1257.79,497.16
			v30.79h18.37c5.27,0,9.37-1.35,12.31-4.06c2.93-2.7,4.4-6.46,4.4-11.27c0-4.76-1.53-8.53-4.58-11.3
			c-3.05-2.77-7.17-4.16-12.34-4.16H-1257.79z"/>
		<path class="st0" d="M-1159.19,544.03v36.26h-20.94V480.24h42.02c11,0,19.67,2.87,26,8.6c6.33,5.73,9.5,13.57,9.5,23.51
			c0,6.47-1.61,12.26-4.82,17.37c-3.21,5.11-7.66,8.8-13.35,11.06l21.08,39.52h-23.71l-18.65-36.26H-1159.19z M-1159.19,497.16
			v30.79h18.37c5.27,0,9.37-1.35,12.31-4.06c2.94-2.7,4.4-6.46,4.4-11.27c0-4.76-1.53-8.53-4.58-11.3
			c-3.05-2.77-7.17-4.16-12.34-4.16H-1159.19z"/>
		<path class="st0" d="M-1017.25,580.3l-7.56-23.85h-35.16l-7.7,23.85h-21.01l34.74-100.06h24.62l34.74,100.06H-1017.25z
			 M-1042.91,501.04l-12.55,39.25h26.21l-12.41-39.25H-1042.91z"/>
		<path class="st0" d="M-940.29,580.3h-20.94v-36.82l-34.88-63.24h22.67l22.05,41.88h1.25l21.98-41.88h22.67l-34.81,63.24V580.3z"/>
	</g>
	<g>
		<g>
			<path class="st0" d="M-1378.46,505.82l13.96,29.45l-9.55,20h19.62l12.26,25.01h-43.82h-28.02L-1378.46,505.82z M-1351.19,512.19
				l33.54,68.1h28.19l-49.27-100.06h-27.52l-0.04,0.09L-1351.19,512.19z"/>
		</g>
	</g>
</g>
<g>
	<g>
		<path class="st1" d="M-1486-328.14l28.92,60.99l-19.77,41.42h40.63l25.38,51.8h-90.74h-58.03L-1486-328.14z M-1429.52-314.95
			l69.44,141.01h58.37l-102.03-207.18h-56.98l-0.09,0.19L-1429.52-314.95z"/>
	</g>
</g>
<rect class="st0" width="500" height="500"/>
<g>
	<g>
		<path class="st1" d="M197.27,201.78l27.55,58.1l-18.83,39.46h38.71l24.18,49.35h-86.44h-55.28L197.27,201.78z M251.08,214.35
			l66.15,134.34h55.61l-97.2-197.38h-54.28l-0.09,0.18L251.08,214.35z"/>
	</g>
</g>
<g>
	<g>
		<path class="st0" d="M-946.99-328.14l28.92,60.99l-19.77,41.42h40.63l25.38,51.8h-90.74h-58.03L-946.99-328.14z M-890.51-314.95
			l69.44,141.01h58.37l-102.03-207.18h-56.98l-0.09,0.19L-890.51-314.95z"/>
	</g>
</g>
</svg>
