<svg xmlns="http://www.w3.org/2000/svg" version="1.1" xmlns:xlink="http://www.w3.org/1999/xlink" xmlns:svgjs="http://svgjs.dev/svgjs" width="2000" height="1999" viewBox="0 0 2000 1999"><g transform="matrix(1,0,0,1,-0.431486880466764,-0.4312711370263287)"><svg viewBox="0 0 343 343" data-background-color="#3b4131" preserveAspectRatio="xMidYMid meet" height="1999" width="2000" xmlns="http://www.w3.org/2000/svg" xmlns:xlink="http://www.w3.org/1999/xlink"><g id="tight-bounds" transform="matrix(1,0,0,1,0.0740000000000407,0.07400000000001228)"><svg viewBox="0 0 342.85155851775386 342.85155851775386" height="342.85155851775386" width="342.85155851775386"><g><svg></svg></g><g><svg viewBox="0 0 342.85155851775386 342.85155851775386" height="342.85155851775386" width="342.85155851775386"><g><path d="M0 171.426c0-94.676 76.75-171.426 171.426-171.426 94.676 0 171.426 76.75 171.426 171.426 0 94.676-76.75 171.426-171.426 171.426-94.676 0-171.426-76.75-171.426-171.426zM171.426 333.194c89.342 0 161.769-72.426 161.768-161.768 0-89.342-72.426-161.769-161.768-161.769-89.342 0-161.769 72.426-161.769 161.769 0 89.342 72.426 161.769 161.769 161.768z" data-fill-palette-color="tertiary" fill="#fff6db" stroke="transparent"></path><ellipse rx="164.56874808852186" ry="164.56874808852186" cx="171.42577925887693" cy="171.42577925887693" fill="#fff6db" stroke="transparent" stroke-width="0" fill-opacity="1" data-fill-palette-color="tertiary"></ellipse></g><g transform="matrix(1,0,0,1,64.84655864529837,114.97991033738998)"><svg viewBox="0 0 213.1584412271571 112.89173784297391" height="112.89173784297391" width="213.1584412271571"><g><svg viewBox="0 0 381.30274045655085 201.94334677347163" height="112.89173784297391" width="213.1584412271571"><g><rect width="17.274937918176374" height="192.51623343329288" x="167.57615262663865" y="4.713556670089375" fill="#fff6db" opacity="1" stroke-width="0" stroke="transparent" fill-opacity="1" class="rect-qz-0" data-fill-palette-color="primary" rx="1%" id="qz-0" data-palette-color="#fff6db"></rect></g><g transform="matrix(1,0,0,1,0,5.192452773157257)"><svg viewBox="0 0 122.35380205549632 191.55844122715712" height="191.55844122715712" width="122.35380205549632"><g id="textblocktransform"><svg viewBox="0 0 122.35380205549632 191.55844122715712" height="191.55844122715712" width="122.35380205549632" id="textblock"><g><svg viewBox="0 0 122.35380205549632 191.55844122715712" height="191.55844122715712" width="122.35380205549632"><g transform="matrix(1,0,0,1,0,0)"><svg width="122.35380205549632" viewBox="1.5 -34.3 22.1 34.599999999999994" height="191.55844122715712" data-palette-color="#3b4131"><path d="M13.25-34.3L13.25-34.3Q15-34.3 16.6-33.98 18.2-33.65 19.53-33.23 20.85-32.8 21.78-32.35 22.7-31.9 23.05-31.65L23.05-31.65 20.6-27.35 19.95-27.7Q19.3-28.05 18.25-28.5 17.2-28.95 15.95-29.3 14.7-29.65 13.55-29.65L13.55-29.65Q11.75-29.65 10.43-28.8 9.1-27.95 9.1-26.15L9.1-26.15Q9.1-23.9 10.55-22.48 12-21.05 15.1-19.85L15.1-19.85Q17.1-19.05 18.68-18.18 20.25-17.3 21.35-16.15 22.45-15 23.03-13.5 23.6-12 23.6-9.9L23.6-9.9Q23.6-8 22.88-6.15 22.15-4.3 20.73-2.88 19.3-1.45 17.2-0.58 15.1 0.3 12.35 0.3L12.35 0.3Q10.4 0.3 8.65-0.1 6.9-0.5 5.48-1.03 4.05-1.55 3.03-2.1 2-2.65 1.5-2.95L1.5-2.95 3.6-7.55 4.5-7.05Q5.4-6.55 6.7-5.95 8-5.35 9.45-4.85 10.9-4.35 11.95-4.35L11.95-4.35Q14.6-4.35 15.9-5.65 17.2-6.95 17.2-9.3L17.2-9.3Q17.2-10.4 16.85-11.23 16.5-12.05 15.85-12.65 15.2-13.25 14.28-13.73 13.35-14.2 12.2-14.65L12.2-14.65Q9.95-15.6 8.18-16.55 6.4-17.5 5.15-18.73 3.9-19.95 3.25-21.53 2.6-23.1 2.6-25.3L2.6-25.3Q2.6-27.15 3.4-28.78 4.2-30.4 5.6-31.63 7-32.85 8.95-33.58 10.9-34.3 13.25-34.3Z" opacity="1" transform="matrix(1,0,0,1,0,0)" fill="#3b4131" class="wordmark-text-0" data-fill-palette-color="quaternary" id="text-0"></path></svg></g></svg></g></svg></g></svg></g><g transform="matrix(1,0,0,1,230.07344111595734,0)"><svg viewBox="0 0 151.22929934059346 201.94334677347163" height="201.94334677347163" width="151.22929934059346"><g><svg xmlns="http://www.w3.org/2000/svg" xmlns:xlink="http://www.w3.org/1999/xlink" version="1.0" x="0" y="0" viewBox="28.108181344444446 20.532867848005424 43.78427698199141 58.467132151994576" enable-background="new 0 0 100 100" xml:space="preserve" height="201.94334677347163" width="151.22929934059346" class="icon-icon-0" data-fill-palette-color="quaternary" id="icon-0"><g fill="#3b4131" data-fill-palette-color="quaternary"><g fill="#3b4131" data-fill-palette-color="quaternary"><path d="M71.867 57.151c-0.043-8.578-10.722-13.769-11.138-13.966-1.376-0.729-2.088-1.804-1.098-4.679 0.89-2.56 1.658-5.135 1.299-8.47-0.56-5.25-5.436-9.502-10.884-9.503-0.016 0-0.033 0-0.05 0C44.565 20.489 39.624 24.77 39.063 30.035c-0.359 3.338 0.41 5.912 1.298 8.468 0.99 2.876 0.277 3.952-1.059 4.662-0.454 0.217-11.134 5.408-11.176 13.986-0.04 7.961 0 20.724 0 20.852C28.128 78.554 28.575 79 29.126 79h41.762c0.552 0 0.999-0.447 1-0.999C71.888 77.874 71.907 65.111 71.867 57.151zM41.051 30.248c0.447-4.19 4.516-7.714 8.896-7.715 0.016 0 0.03 0 0.045 0 0.002 0 0.006 0 0.008 0 0.016-0.002 0.029 0 0.045 0 4.38 0 8.449 3.524 8.896 7.716 0.286 2.662-0.201 4.725-1.2 7.603-0.265 0.767-0.852 2.489-0.403 4.177-2.365 2.251-4.829 3.372-7.408 3.305-3.52-0.095-6.282-2.406-7.259-3.34 0.425-1.674-0.156-3.38-0.42-4.144C41.252 34.975 40.765 32.912 41.051 30.248zM69.889 77h-39.766c-0.008-3.168-0.03-13.185 0.003-19.839 0.035-7.319 9.938-12.143 10.075-12.21 0.633-0.335 1.112-0.724 1.489-1.139 1.407 1.256 4.359 3.411 8.166 3.521 0.101 0.003 0.202 0.004 0.303 0.004 2.859 0 5.603-1.184 8.176-3.503 0.38 0.414 0.861 0.801 1.495 1.137 0.101 0.047 10.001 4.854 10.037 12.19C69.9 63.814 69.893 73.829 69.889 77z" fill="#3b4131" data-fill-palette-color="quaternary"></path><path d="M48.996 36l4 0.015c0.002 0 0.003 0 0.004 0 0.551 0 0.998-0.445 1-0.996 0.002-0.553-0.444-1.002-0.996-1.004L50 34.003V29c0-0.552-0.447-1-1-1s-1 0.448-1 1v6C48 35.551 48.445 35.998 48.996 36z" fill="#3b4131" data-fill-palette-color="quaternary"></path><path d="M47.144 56.14c-0.352-0.425-0.98-0.488-1.409-0.136l-5.707 4.708c-0.23 0.19-0.364 0.474-0.363 0.774s0.135 0.583 0.367 0.772l5.496 4.496c0.186 0.152 0.409 0.226 0.632 0.226 0.29 0 0.577-0.125 0.776-0.366 0.35-0.428 0.286-1.058-0.142-1.407l-4.554-3.727 4.769-3.933C47.435 57.196 47.495 56.565 47.144 56.14z" fill="#3b4131" data-fill-palette-color="quaternary"></path><path d="M58.085 64.98h-6.765c-0.553 0-1 0.448-1 1s0.447 1 1 1h6.765c0.553 0 1-0.448 1-1S58.638 64.98 58.085 64.98z" fill="#3b4131" data-fill-palette-color="quaternary"></path></g></g></svg></g></svg></g></svg></g></svg></g></svg></g><defs></defs></svg><rect width="342.85155851775386" height="342.85155851775386" fill="none" stroke="none" visibility="hidden"></rect></g></svg></g></svg>